<?xml version="1.0" standalone="no"?>
<!DOCTYPE svg PUBLIC "-//W3C//DTD SVG 20010904//EN"
 "http://www.w3.org/TR/2001/REC-SVG-20010904/DTD/svg10.dtd">
<svg version="1.0" xmlns="http://www.w3.org/2000/svg"
 width="606.000000pt" height="606.000000pt" viewBox="0 0 606.000000 606.000000"
 preserveAspectRatio="xMidYMid meet">

<g transform="translate(0.000000,606.000000) scale(0.100000,-0.100000)"
fill="#000000" stroke="none">
<path d="M2805 6054 c-444 -44 -771 -136 -1135 -320 -812 -410 -1408 -1181
-1594 -2059 -53 -252 -61 -340 -60 -645 0 -308 11 -417 69 -674 246 -1098
1126 -1991 2228 -2260 264 -65 396 -80 712 -80 292 -1 361 5 595 50 268 51
479 123 745 254 277 135 500 287 710 481 526 487 846 1090 956 1799 20 126 23
184 23 435 0 319 -14 449 -74 700 -264 1109 -1137 1982 -2246 2245 -224 53
-376 71 -644 75 -135 2 -263 1 -285 -1z m650 -74 c649 -96 1226 -387 1690
-854 459 -462 733 -1014 838 -1686 31 -200 30 -614 -2 -820 -102 -663 -383
-1223 -845 -1686 -461 -460 -1028 -745 -1686 -845 -194 -30 -609 -33 -795 -5
-246 36 -452 87 -652 162 -874 326 -1547 1042 -1816 1934 -42 137 -79 309
-103 475 -25 170 -25 592 0 760 101 685 381 1251 850 1721 499 498 1132 795
1843 864 149 15 520 4 678 -20z"/>
<path d="M3060 5595 l0 -265 35 0 35 0 0 130 0 130 30 0 30 0 0 -142 0 -143
35 -1 35 -1 0 278 0 279 -35 0 -35 0 0 -105 0 -105 -30 0 -30 0 0 105 0 105
-35 0 -35 0 0 -265z"/>
<path d="M2790 5612 l0 -189 23 3 c12 1 66 3 120 3 l97 1 0 33 0 32 -85 -4
-85 -3 0 124 0 123 75 -1 75 -1 0 33 0 34 -110 0 -110 0 0 -188z"/>
<path d="M1961 5619 c-106 -49 -196 -90 -198 -93 -3 -2 1 -15 9 -29 l13 -24
160 72 160 72 18 -56 c10 -30 16 -61 15 -69 -3 -11 -67 -42 -316 -152 -40 -18
-41 -20 -30 -45 13 -30 14 -30 136 26 47 22 87 37 90 34 3 -2 13 -22 22 -43
l18 -39 -78 -33 c-83 -35 -82 -33 -55 -87 1 -2 72 29 159 67 86 39 160 68 164
66 5 -3 18 -27 31 -54 l23 -50 32 14 c17 7 30 17 29 21 -1 4 -17 43 -37 85
l-35 77 -76 -34 c-42 -19 -80 -35 -85 -35 -9 0 -40 63 -40 79 0 3 52 28 114
56 111 49 113 50 103 75 -6 14 -12 26 -13 28 -1 2 -20 -6 -42 -17 -43 -22 -52
-19 -52 13 0 12 -10 53 -23 92 l-22 71 -194 -88z"/>
<path d="M3939 5683 c-5 -14 -8 -27 -7 -28 2 -1 41 -18 88 -38 l85 -36 9 25
c4 14 6 27 5 28 -2 2 -41 20 -87 39 l-83 36 -10 -26z"/>
<path d="M3829 5638 c-10 -18 -9 -24 2 -31 36 -22 315 -134 320 -128 4 3 9 15
13 26 5 18 -9 26 -116 70 -232 95 -206 88 -219 63z"/>
<path d="M4180 5423 c-36 -86 -66 -160 -68 -164 -2 -4 11 -15 27 -24 l31 -16
25 57 c14 31 25 60 25 65 0 12 27 11 52 -2 18 -9 24 -8 35 7 20 28 16 40 -22
55 l-34 14 29 68 c17 38 30 70 30 72 0 2 -60 26 -64 25 -1 0 -30 -71 -66 -157z"/>
<path d="M3813 5514 c-35 -35 -26 -77 26 -125 70 -63 181 -80 228 -33 47 47
13 116 -82 160 -70 33 -137 32 -172 -2z m165 -53 c34 -18 45 -47 26 -65 -20
-20 -30 -20 -81 3 -60 28 -76 69 -33 83 17 5 56 -4 88 -21z"/>
<path d="M3766 5334 c-3 -9 -6 -19 -6 -23 0 -4 69 -36 153 -71 83 -35 154 -65
156 -66 2 -2 -4 -22 -14 -46 -9 -24 -19 -48 -21 -54 -4 -9 35 -34 55 -34 9 0
75 150 68 156 -8 8 -360 154 -372 154 -7 0 -16 -7 -19 -16z"/>
<path d="M1066 5034 l-150 -143 66 -69 67 -69 60 61 c60 59 60 60 81 41 l21
-19 -88 -88 c-87 -87 -87 -88 -68 -107 20 -20 22 -18 224 177 198 192 203 197
184 215 -11 9 -23 17 -28 17 -4 0 -45 -37 -91 -82 -79 -77 -85 -81 -101 -65
-16 16 -14 21 47 82 l64 65 -22 22 -22 23 -125 -125 -125 -125 -25 26 -25 25
123 122 124 122 -21 19 c-21 19 -22 18 -170 -125z"/>
<path d="M2880 5173 c-924 -70 -1696 -721 -1925 -1623 -61 -243 -78 -577 -42
-820 48 -312 165 -620 331 -868 94 -141 146 -205 264 -326 334 -340 743 -549
1222 -623 155 -24 451 -23 609 1 394 60 766 225 1056 468 418 350 680 814 762
1348 23 157 23 454 -1 610 -96 633 -452 1175 -994 1517 -364 229 -848 349
-1282 316z m427 -68 c931 -121 1676 -866 1798 -1798 17 -135 20 -383 5 -507
-48 -395 -205 -770 -449 -1073 -344 -426 -841 -700 -1391 -767 -124 -15 -372
-12 -507 5 -845 111 -1546 736 -1753 1564 -118 469 -66 974 145 1409 304 628
883 1056 1570 1162 154 23 420 26 582 5z"/>
<path d="M2964 5026 c-51 -22 -79 -72 -79 -138 0 -61 17 -94 68 -132 43 -32
124 -28 172 8 120 92 59 277 -92 276 -21 -1 -52 -7 -69 -14z"/>
<path d="M2910 4659 c-688 -46 -1286 -550 -1454 -1226 -37 -148 -48 -243 -48
-408 3 -705 447 -1313 1123 -1539 263 -88 590 -103 867 -40 596 137 1069 600
1216 1191 37 148 48 240 47 407 -1 554 -275 1055 -744 1361 -294 191 -640 278
-1007 254z m433 -89 c599 -126 1065 -574 1211 -1162 158 -635 -103 -1308 -649
-1672 -490 -327 -1111 -354 -1628 -69 -278 153 -500 386 -646 679 -227 456
-213 997 38 1450 235 425 679 728 1162 793 117 16 397 5 512 -19z"/>
<path d="M2917 4439 c-409 -34 -770 -237 -1021 -574 -126 -168 -217 -389 -256
-620 -15 -88 -15 -327 0 -420 95 -604 556 -1073 1160 -1181 114 -20 340 -20
460 0 230 38 428 122 612 258 116 86 198 167 283 280 216 286 311 607 284 963
-14 184 -66 370 -148 534 -85 167 -262 376 -415 489 -278 203 -617 299 -959
271z m378 -84 c539 -112 947 -521 1062 -1065 27 -132 25 -392 -5 -529 -118
-531 -514 -926 -1043 -1042 -151 -34 -400 -34 -548 -1 -537 120 -934 522
-1048 1062 -28 133 -25 393 5 529 125 556 554 964 1112 1056 109 18 355 13
465 -10z"/>
<path d="M2805 4200 c-420 -85 -768 -393 -898 -795 -77 -237 -77 -502 0 -740
155 -482 614 -815 1122 -815 665 0 1191 524 1191 1185 0 580 -413 1072 -984
1170 -120 20 -317 18 -431 -5z m395 -55 c170 -25 302 -76 449 -171 167 -109
330 -299 410 -477 159 -355 126 -755 -90 -1087 -55 -84 -225 -254 -309 -309
-528 -344 -1217 -204 -1561 317 -146 222 -210 483 -180 741 31 261 137 480
325 667 257 258 603 373 956 319z"/>
<path d="M2905 3993 c-152 -24 -339 -102 -455 -191 -167 -127 -296 -321 -352
-532 -33 -122 -32 -347 1 -470 76 -283 257 -504 515 -630 149 -73 248 -95 426
-94 175 0 264 20 415 94 212 103 354 248 456 465 66 141 82 217 83 395 0 186
-18 269 -94 425 -102 212 -248 355 -463 455 -124 58 -230 82 -377 85 -69 2
-138 1 -155 -2z m95 -138 l0 -75 -230 0 c-126 0 -230 2 -230 4 0 2 24 17 53
34 113 63 260 109 360 111 l47 1 0 -75z m218 60 c38 -8 100 -26 137 -40 64
-24 175 -81 175 -91 0 -2 -103 -4 -230 -4 l-230 0 0 75 0 75 39 0 c22 0 71 -7
109 -15z m-218 -250 l0 -45 -191 0 c-223 0 -234 -3 -275 -80 -24 -48 -25 -162
-1 -215 10 -22 33 -50 51 -63 31 -21 42 -22 224 -22 l192 0 0 -44 0 -45 -189
-3 c-173 -3 -192 -5 -217 -24 -60 -44 -69 -67 -69 -171 0 -77 3 -98 16 -106 9
-6 24 -7 33 -4 13 5 16 22 16 87 0 145 7 149 233 150 l177 0 0 -130 0 -130
-183 0 c-205 0 -234 -8 -272 -71 -18 -30 -21 -57 -25 -241 l-5 -208 -57 46
c-68 54 -164 170 -211 256 -118 213 -143 482 -67 710 45 134 123 261 217 355
l42 43 281 0 280 0 0 -45z m687 -14 c130 -133 223 -335 242 -521 29 -296 -91
-597 -309 -777 l-65 -54 -5 208 c-5 194 -7 210 -28 244 -38 62 -66 69 -271 69
l-181 0 0 130 0 130 178 0 c225 -1 232 -5 232 -150 0 -65 3 -82 16 -87 9 -3
24 -2 33 4 13 8 16 29 16 106 0 104 -9 127 -69 171 -25 19 -44 21 -217 24
l-189 3 0 45 0 44 191 0 c217 0 235 5 272 75 29 57 29 174 -1 232 -35 68 -53
73 -272 73 l-190 0 0 45 0 45 280 0 280 0 57 -59z m-687 -137 l0 -44 -205 0
c-195 0 -205 1 -205 19 0 11 13 30 29 43 28 24 33 25 205 25 l176 0 0 -43z
m452 15 c16 -15 28 -35 28 -43 0 -14 -25 -16 -205 -16 l-205 0 0 44 0 44 177
-1 178 0 27 -28z m-452 -174 l0 -45 -184 0 -185 0 -20 26 c-12 15 -21 35 -21
45 0 18 12 19 205 19 l205 0 0 -45z m480 26 c0 -10 -9 -30 -21 -45 l-20 -26
-185 0 -184 0 0 45 0 45 205 0 c193 0 205 -1 205 -19z m-690 -919 l0 -293 -22
6 c-13 4 -57 21 -98 39 l-75 31 -3 218 c-3 291 -4 290 171 292 l27 1 0 -294z
m418 -9 l2 -301 -34 -6 c-48 -9 -211 -9 -269 -1 l-47 7 0 297 c0 164 2 300 4
302 3 2 80 4 173 4 l168 -1 3 -301z m219 292 c47 -11 54 -47 51 -282 l-3 -217
-75 -32 c-41 -17 -85 -35 -97 -39 l-23 -6 0 290 0 290 28 3 c31 4 86 0 119 -7z"/>
<path d="M1649 4478 c-74 -42 -99 -135 -57 -209 24 -43 85 -79 133 -79 48 0
109 36 133 79 76 135 -75 287 -209 209z"/>
<path d="M4273 4479 c-54 -27 -88 -91 -80 -151 14 -108 133 -170 225 -118 106
60 107 210 2 269 -48 27 -93 27 -147 0z"/>
<path d="M1105 3168 c-94 -54 -101 -196 -14 -259 26 -19 47 -24 91 -24 61 0
94 17 132 69 29 38 29 124 0 162 -53 72 -138 93 -209 52z"/>
<path d="M4824 3176 c-17 -8 -44 -31 -60 -51 -36 -48 -40 -129 -8 -172 39 -51
71 -68 133 -68 47 0 64 5 93 27 43 33 62 83 55 143 -11 104 -116 163 -213 121z"/>
<path d="M1653 1859 c-47 -23 -83 -83 -83 -138 0 -75 78 -151 155 -151 77 0
155 76 155 151 0 56 -36 115 -84 138 -54 26 -90 26 -143 0z"/>
<path d="M4285 1866 c-55 -25 -95 -85 -95 -143 0 -50 38 -110 84 -132 53 -26
89 -26 141 -1 49 24 85 81 85 135 0 107 -118 184 -215 141z"/>
<path d="M2995 1333 c-36 -9 -87 -55 -102 -92 -42 -101 32 -211 141 -211 93 0
151 59 151 152 0 60 -17 94 -66 130 -26 19 -91 30 -124 21z"/>
<path d="M4815 5140 c-19 -21 -17 -22 110 -150 l129 -130 -34 -30 c-19 -16
-61 -49 -92 -72 -32 -23 -58 -45 -58 -49 0 -3 10 -15 23 -26 l22 -21 81 61
c45 34 98 77 119 95 l38 34 -154 154 c-85 85 -156 154 -160 154 -3 0 -14 -9
-24 -20z"/>
<path d="M4698 4922 l-67 -69 -45 46 -46 46 -22 -23 -23 -23 125 -121 c305
-298 277 -274 300 -253 l21 19 -78 78 -77 78 67 68 68 68 -26 24 -26 24 -67
-67 -67 -67 -28 27 -27 28 67 67 68 68 -26 25 -25 26 -66 -69z"/>
<path d="M1423 4884 c-51 -18 -164 -121 -199 -180 -33 -57 -35 -121 -4 -146
46 -37 128 -13 213 62 125 111 161 239 75 269 -37 13 -32 13 -85 -5z m57 -69
c10 -12 10 -21 1 -42 -45 -99 -194 -201 -215 -148 -9 25 11 62 61 116 44 47
103 88 129 89 6 0 17 -7 24 -15z"/>
<path d="M659 4075 c-71 -39 -20 -144 56 -115 52 20 52 100 0 120 -31 12 -24
12 -56 -5z"/>
<path d="M5340 4082 c-54 -17 -67 -77 -23 -111 28 -23 54 -21 86 7 44 38 -6
122 -63 104z"/>
<path d="M5573 3421 c-41 -26 -53 -49 -53 -104 0 -35 6 -50 28 -72 l27 -28
-50 6 c-39 4 -55 12 -78 37 -24 27 -28 39 -25 76 3 44 3 44 -31 44 l-33 0 4
-65 c7 -114 63 -160 193 -160 183 0 270 73 234 195 -19 62 -49 83 -122 88 -49
2 -69 -1 -94 -17z m147 -81 c25 -25 25 -45 1 -69 -29 -29 -85 -37 -116 -17
-24 16 -33 49 -17 72 25 37 101 45 132 14z"/>
<path d="M266 3305 c-8 -101 -2 -146 30 -201 30 -54 79 -77 170 -82 142 -8
204 64 221 255 6 70 5 72 -18 77 -34 7 -328 36 -365 36 l-31 0 -7 -85z m236
-15 c54 -6 102 -10 109 -10 18 0 5 -88 -18 -119 -51 -69 -154 -78 -220 -18
-36 34 -51 77 -45 135 3 31 5 32 40 27 20 -3 81 -10 134 -15z"/>
<path d="M5486 3056 c-96 -27 -139 -109 -100 -191 14 -29 30 -43 72 -63 48
-22 64 -24 151 -20 112 4 155 23 184 78 35 67 8 144 -63 180 -53 27 -177 35
-244 16z m223 -86 c49 -26 46 -81 -5 -100 -44 -17 -195 -12 -234 8 -59 29 -48
85 20 102 44 12 193 5 219 -10z"/>
<path d="M369 2893 c-62 -32 -95 -75 -105 -138 -15 -106 45 -210 136 -235 101
-27 224 11 269 84 65 105 13 268 -98 305 -62 20 -142 14 -202 -16z m190 -69
c50 -20 71 -51 71 -107 0 -72 -64 -120 -161 -120 -94 0 -139 40 -139 124 0 33
6 47 30 69 50 47 132 61 199 34z"/>
<path d="M5383 2684 c-61 -30 -85 -143 -42 -198 58 -74 188 -81 229 -13 21 34
27 111 10 122 -5 3 -10 10 -10 15 0 15 58 -10 85 -38 22 -22 26 -33 22 -67 -2
-22 -8 -49 -11 -60 -6 -16 -1 -23 23 -32 l31 -11 16 55 c22 77 12 118 -40 169
-31 29 -60 45 -102 57 -75 21 -169 22 -211 1z m106 -65 c51 -18 64 -56 31 -89
-24 -24 -86 -27 -118 -4 -43 30 -16 104 39 104 9 0 30 -5 48 -11z"/>
<path d="M556 2400 c-104 -33 -190 -61 -192 -63 -2 -2 1 -19 6 -39 l10 -36
150 48 c83 26 150 45 150 41 0 -3 -57 -60 -126 -126 l-125 -120 16 -47 c9 -27
19 -48 22 -48 9 0 386 120 391 124 2 3 -1 20 -7 39 l-12 35 -151 -49 -152 -48
128 128 128 129 -14 43 c-8 23 -18 44 -24 45 -5 2 -94 -24 -198 -56z"/>
<path d="M5261 2298 c-10 -29 -8 -43 16 -105 15 -40 31 -73 35 -73 4 0 18 4
32 10 25 9 25 10 10 46 -8 20 -13 38 -10 41 2 3 70 -16 149 -41 80 -25 147
-46 150 -46 7 0 30 70 25 75 -4 3 -383 125 -391 125 -3 0 -10 -15 -16 -32z"/>
<path d="M805 1995 c-5 -2 -26 -6 -46 -9 -52 -9 -121 -59 -148 -107 -46 -81
-22 -198 61 -293 l33 -37 94 50 c51 28 95 52 98 55 5 4 -65 146 -72 146 -10 0
-55 -24 -55 -29 0 -3 9 -21 21 -40 11 -18 19 -34 17 -35 -2 -1 -24 -15 -50
-30 l-48 -27 -20 33 c-55 90 -32 170 62 219 99 51 194 -2 227 -129 l12 -42 29
15 c25 13 28 18 20 42 -27 91 -70 157 -124 187 -40 23 -91 37 -111 31z"/>
<path d="M5096 1886 l-18 -35 46 -84 c25 -47 46 -88 46 -91 0 -4 -46 -4 -102
0 l-103 6 -23 -41 -23 -41 146 0 145 0 72 -45 c68 -42 74 -44 86 -28 36 48 35
49 -39 95 -70 43 -70 43 -136 171 -37 70 -69 127 -73 127 -3 0 -14 -15 -24
-34z"/>
<path d="M1035 1601 c-47 -12 -87 -36 -127 -78 -92 -95 -77 -207 43 -324 l60
-60 82 67 c45 37 85 70 89 73 4 4 -16 36 -45 72 -52 66 -53 66 -75 49 -28 -23
-28 -26 3 -62 l26 -30 -38 -34 c-21 -18 -44 -33 -50 -34 -7 0 -26 19 -43 42
-95 130 69 302 207 217 19 -12 48 -45 65 -75 l30 -54 28 16 28 17 -30 51 c-16
28 -42 64 -56 79 -51 55 -135 84 -197 68z"/>
<path d="M4798 1464 l-108 -124 26 -17 c26 -17 27 -17 66 26 35 37 42 41 56
28 10 -7 70 -60 136 -117 l119 -104 23 29 c13 17 24 32 24 35 0 3 -58 56 -130
118 -71 62 -130 116 -130 120 0 5 16 23 35 42 41 40 43 52 13 72 -22 14 -27
11 -130 -108z"/>
<path d="M1299 1231 c-52 -61 -102 -126 -112 -144 -37 -66 0 -150 92 -209 39
-25 54 -29 94 -25 56 5 61 9 184 151 l94 108 -28 30 -28 30 -55 -64 c-114
-132 -165 -178 -196 -178 -36 0 -72 24 -85 56 -14 38 11 84 99 187 43 51 81
97 85 103 3 6 -7 23 -22 38 l-29 28 -93 -111z"/>
<path d="M4617 1283 l-27 -29 142 -157 143 -157 29 30 29 29 -79 87 c-43 48
-108 119 -144 157 l-65 69 -28 -29z"/>
<path d="M4473 1159 c-23 -11 -58 -38 -78 -60 -39 -44 -46 -89 -20 -139 31
-60 75 -71 186 -48 67 14 89 3 89 -42 0 -33 -47 -78 -91 -87 -34 -6 -33 -5
-14 -44 15 -29 16 -29 50 -15 57 24 103 65 125 112 19 38 20 49 10 79 -6 19
-25 46 -43 61 -33 27 -56 28 -181 8 -44 -7 -66 10 -66 52 0 24 47 66 87 78 22
7 22 9 8 37 -9 16 -17 29 -18 29 -1 0 -21 -9 -44 -21z"/>
<path d="M1674 963 c-32 -54 -79 -135 -106 -181 l-48 -82 33 -20 c17 -11 34
-20 37 -20 3 0 25 36 50 80 25 44 48 80 51 80 3 0 12 -51 19 -114 7 -63 16
-119 19 -123 8 -12 81 -56 86 -52 2 2 -7 66 -19 141 l-22 138 123 41 c68 22
121 44 119 48 -3 4 -23 16 -45 26 l-40 18 -101 -38 c-56 -20 -104 -34 -107
-32 -2 3 14 38 37 77 23 39 40 73 38 74 -26 17 -58 36 -62 36 -3 0 -31 -44
-62 -97z"/>
<path d="M4087 913 l-95 -48 97 -186 96 -187 38 20 38 19 -41 74 c-23 41 -39
79 -36 84 3 5 18 12 32 15 30 8 47 -2 120 -67 l51 -46 38 23 38 23 -78 67
c-43 36 -87 66 -97 66 -19 0 -19 1 1 26 33 41 28 89 -13 130 -46 46 -73 44
-189 -13z m139 -58 c9 -14 13 -33 9 -44 -6 -19 -62 -61 -82 -61 -7 0 -53 81
-53 95 0 10 57 34 82 35 18 0 33 -8 44 -25z"/>
<path d="M3790 793 c-58 -20 -106 -36 -107 -37 -2 -2 128 -388 133 -394 1 -2
55 13 118 34 104 35 115 40 110 59 -11 36 -21 38 -96 13 l-74 -25 -21 58 -21
58 66 22 c86 28 82 24 69 58 l-10 29 -70 -24 c-39 -13 -72 -24 -73 -24 -7 0
-33 95 -27 101 5 3 38 16 76 29 65 21 74 30 61 64 -8 21 -11 20 -134 -21z"/>
<path d="M2207 658 c-21 -79 -37 -159 -37 -178 0 -50 31 -93 82 -117 91 -43
181 -35 221 19 23 30 108 319 98 330 -3 4 -21 9 -40 10 l-33 3 -37 -130 c-41
-145 -52 -170 -82 -186 -48 -25 -129 21 -129 74 0 12 16 81 36 155 22 80 33
137 27 143 -5 5 -22 11 -38 15 l-30 5 -38 -143z"/>
<path d="M3552 718 c-5 -7 -20 -87 -33 -177 -26 -191 -17 -192 -119 11 -54
106 -74 135 -87 133 -10 -2 -30 -6 -45 -9 l-26 -6 106 -195 107 -196 45 7 c25
3 48 9 51 13 7 6 69 383 69 415 0 20 -52 23 -68 4z"/>
<path d="M2665 665 c-2 -16 -9 -88 -15 -160 -6 -72 -13 -154 -16 -182 l-6 -53
39 0 40 0 6 63 c4 34 9 103 13 154 4 51 10 91 13 89 3 -3 35 -77 71 -165 l65
-161 51 0 51 0 12 153 c7 83 15 178 18 210 l6 57 -40 0 -40 0 -12 -152 c-7
-84 -15 -155 -17 -157 -2 -2 -8 9 -14 25 -6 16 -36 90 -67 166 l-55 136 -49 4
c-48 3 -49 2 -54 -27z"/>
<path d="M3140 672 l-35 -3 6 -147 c4 -81 7 -175 8 -209 l1 -63 41 0 41 0 -7
208 c-4 114 -10 209 -14 212 -3 3 -22 4 -41 2z"/>
</g>
</svg>
